HIERARCHY
ROOT Hips
{
	OFFSET 56.877701 -32.693596 43.373703
	CHANNELS 6 Xposition Yposition Zposition Zrotation Xrotation Yrotation
	JOINT Chest
	{
		OFFSET -0.779999 1.005800 5.403099
		CHANNELS 6 Xposition Yposition Zposition Zrotation Xrotation Yrotation
		JOINT Chest2
		{
			OFFSET 0.000000 0.000000 4.236801
			CHANNELS 6 Xposition Yposition Zposition Zrotation Xrotation Yrotation
			JOINT Neck
			{
				OFFSET 0.000000 0.000000 9.874401
				CHANNELS 6 Xposition Yposition Zposition Zrotation Xrotation Yrotation
				JOINT Head
				{
					OFFSET 0.000000 0.000002 2.173893
					CHANNELS 6 Xposition Yposition Zposition Zrotation Xrotation Yrotation
					End Site
					{
						OFFSET 0.000000 0.000000 6.508102
					}
				}
			}
			JOINT LeftCollar
			{
				OFFSET 2.681599 -0.377600 5.432499
				CHANNELS 6 Xposition Yposition Zposition Zrotation Xrotation Yrotation
				JOINT LeftShoulder
				{
					OFFSET 5.161499 0.000000 0.000000
					CHANNELS 6 Xposition Yposition Zposition Zrotation Xrotation Yrotation
					JOINT LeftElbow
					{
						OFFSET 0.000000 0.000000 -10.869099
						CHANNELS 6 Xposition Yposition Zposition Zrotation Xrotation Yrotation
						JOINT LeftWrist
						{
							OFFSET 0.000000 0.000000 -13.344799
							CHANNELS 6 Xposition Yposition Zposition Zrotation Xrotation Yrotation
							End Site
							{
								OFFSET 0.000000 0.000000 -2.173901
							}
						}
					}
				}
			}
			JOINT RightCollar
			{
				OFFSET -2.381901 -1.419600 6.136600
				CHANNELS 6 Xposition Yposition Zposition Zrotation Xrotation Yrotation
				JOINT RightShoulder
				{
					OFFSET -4.550499 0.000000 0.000000
					CHANNELS 6 Xposition Yposition Zposition Zrotation Xrotation Yrotation
					JOINT RightElbow
					{
						OFFSET 0.000000 0.000000 -11.106499
						CHANNELS 6 Xposition Yposition Zposition Zrotation Xrotation Yrotation
						JOINT RightWrist
						{
							OFFSET 0.000000 0.000000 -12.874298
							CHANNELS 6 Xposition Yposition Zposition Zrotation Xrotation Yrotation
							End Site
							{
								OFFSET 0.000000 0.000000 -2.173901
							}
						}
					}
				}
			}
		}
	}
	JOINT LeftHip
	{
		OFFSET 2.431900 0.469601 -2.489399
		CHANNELS 6 Xposition Yposition Zposition Zrotation Xrotation Yrotation
		JOINT LeftKnee
		{
			OFFSET 0.000000 -0.000004 -18.200201
			CHANNELS 6 Xposition Yposition Zposition Zrotation Xrotation Yrotation
			JOINT LeftAnkle
			{
				OFFSET 0.000000 0.000000 -16.279900
				CHANNELS 6 Xposition Yposition Zposition Zrotation Xrotation Yrotation
				End Site
				{
					OFFSET 0.000000 -8.394100 0.000000
				}
			}
		}
	}
	JOINT RightHip
	{
		OFFSET -1.987999 -0.073502 -2.713001
		CHANNELS 6 Xposition Yposition Zposition Zrotation Xrotation Yrotation
		JOINT RightKnee
		{
			OFFSET 0.000000 -0.000004 -19.547802
			CHANNELS 6 Xposition Yposition Zposition Zrotation Xrotation Yrotation
			JOINT RightAnkle
			{
				OFFSET 0.000000 0.000000 -14.881199
				CHANNELS 6 Xposition Yposition Zposition Zrotation Xrotation Yrotation
				End Site
				{
					OFFSET 0.000000 -7.922699 0.000000
				}
			}
		}
	}
}
MOTION
Frames: 4
Frame Time: 0.041667
-15.154701 -35.710491 46.850906 4678.236330 4.505222 0.626166 -0.779996 1.005796 5.403094 1.287459 1.629239 0.689985 0.000007 0.000001 4.236797 -2.586589 0.995289 -0.163321 0.000002 0.000002 9.874397 -0.317246 13.668365 2.086813 -0.000000 -0.000000 2.173893 0.068582 2.827650 0.195075 2.681603 -0.377603 5.432500 -16.863908 2.899706 -4.663837 5.161497 0.000003 0.000001 156.227067 -155.230310 148.173810 0.000006 0.000002 -10.869102 -326.017743 -26.332386 -308.370719 0.000007 0.000003 -13.344806 9.626878 -28.018811 48.935601 -2.381900 -1.419596 6.136592 12.698290 1.490234 13.104368 -4.550505 -0.000012 0.000004 -1197.341341 -524.578527 -448.418858 0.000003 -0.000010 -11.106503 625.305950 -66.280292 608.794377 -0.000005 -0.000009 -12.874300 -370.078036 11.313583 -66.749321 2.431899 0.469600 -2.489398 -342.482077 -18.868836 1.855066 -0.000003 -0.000008 -18.200199 379.064625 27.366082 -2.137158 -0.000004 0.000002 -16.279898 -58.426388 63.346719 11.288698 -1.988002 -0.073502 -2.712995 -23.270321 -18.077241 -5.330420 -0.000004 0.000004 -19.547798 -1447.198513 42.643521 -350.667130 0.000001 0.000000 -14.881197 2000.265814 120.662368 -526.953193
-15.041092 -35.388302 46.798805 4678.681330 4.753020 0.915195 -0.779997 1.005799 5.403099 0.876364 0.973930 0.307295 -0.000004 0.000002 4.236801 -2.373679 1.080266 -0.138449 -0.000001 -0.000003 9.874398 -0.406267 13.187361 2.224323 0.000003 -0.000004 2.173894 0.073555 2.634779 0.057954 2.681602 -0.377595 5.432499 -17.162350 3.217413 -4.536619 5.161501 -0.000001 0.000001 156.993838 -154.911504 149.001150 0.000010 0.000004 -10.869100 -325.619679 -25.538627 -309.119855 0.000003 -0.000008 -13.344809 10.692373 -27.613092 49.655878 -2.381892 -1.419597 6.136598 12.873405 2.090729 12.886646 -4.550507 -0.000008 0.000005 -1198.009061 -524.675680 -447.622512 0.000010 -0.000007 -11.106493 620.992822 -66.366134 606.028915 -0.000003 0.000001 -12.874290 -368.149409 10.699343 -66.196486 2.431900 0.469599 -2.489398 -342.870114 -18.727011 0.936548 0.000000 -0.000002 -18.200197 378.448433 26.936290 -1.725846 0.000005 0.000002 -16.279903 -58.364629 60.538849 11.485476 -1.988000 -0.073503 -2.712996 -22.406166 -17.471873 -5.157611 0.000001 -0.000005 -19.547800 -1448.893056 40.581531 -351.129425 -0.000003 0.000000 -14.881198 1999.969438 120.420224 -525.823971
-14.901703 -35.053394 46.732304 4679.018359 5.062433 1.125889 -0.779992 1.005801 5.403095 0.568528 0.290549 -0.026785 0.000001 -0.000003 4.236795 -1.993663 1.139498 -0.077785 0.000006 -0.000000 9.874402 -0.638648 12.578180 2.281184 0.000005 0.000000 2.173901 0.051230 2.596696 -0.001822 2.681603 -0.377597 5.432497 -17.692873 3.527628 -4.250980 5.161495 -0.000005 -0.000007 157.642392 -154.678090 149.568288 0.000010 -0.000003 -10.869096 -325.399446 -25.032047 -309.773285 0.000004 0.000000 -13.344805 12.402456 -27.026473 49.282878 -2.381896 -1.419596 6.136592 12.947146 2.416092 12.648398 -4.550506 -0.000011 0.000013 -1198.901247 -524.897087 -447.252207 0.000001 -0.000010 -11.106491 616.603414 -65.992038 603.390495 0.000007 0.000002 -12.874295 -366.070764 10.869642 -66.308194 2.431905 0.469604 -2.489398 -343.027728 -18.821657 0.354641 0.000006 -0.000007 -18.200203 378.215168 27.238308 -2.179517 0.000007 -0.000006 -16.279902 -55.541620 57.524208 9.358108 -1.987995 -0.073503 -2.712995 -22.158529 -17.273048 -5.049757 -0.000002 -0.000005 -19.547798 -1450.226636 38.867427 -351.614805 -0.000004 0.000003 -14.881194 1999.086213 120.036258 -522.872619
-14.740997 -34.698895 46.663307 4678.926124 5.387823 1.415664 -0.780006 1.005801 5.403101 0.693461 -0.358835 -0.503584 0.000003 -0.000003 4.236807 -1.962557 1.296492 -0.050509 -0.000004 -0.000000 9.874397 -0.639619 11.868209 2.496558 0.000000 0.000002 2.173893 0.023951 2.407488 -0.027882 2.681594 -0.377596 5.432495 -17.604326 3.582325 -4.270678 5.161499 -0.000005 -0.000006 158.493092 -154.314218 150.803432 0.000010 0.000003 -10.869102 -325.226315 -24.631172 -310.287899 0.000001 0.000004 -13.344810 13.241612 -26.699365 48.747941 -2.381899 -1.419597 6.136595 13.043155 2.500169 13.116719 -4.550504 0.000000 0.000009 -1199.613991 -524.672073 -447.436540 0.000003 -0.000003 -11.106495 611.642238 -66.139037 600.417341 -0.000000 -0.000005 -12.874295 -364.567248 10.947776 -66.496270 2.431895 0.469597 -2.489392 -342.625730 -19.246578 0.031362 0.000001 -0.000005 -18.200199 378.241751 28.467197 -3.478512 0.000009 0.000003 -16.279898 -50.486518 54.829221 4.935844 -1.988008 -0.073503 -2.712996 -22.441184 -17.573619 -5.281714 -0.000002 0.000003 -19.547796 -1450.415259 38.208174 -351.983472 -0.000009 0.000005 -14.881193 1999.178229 120.277200 -522.348170
